<svg width="256" height="44" viewBox="0 0 256 44" fill="none" xmlns="http://www.w3.org/2000/svg">
<path d="M40.6297 18.6143C39.9558 15.0883 38.458 11.7707 36.2577 8.93086C38.7426 5.96441 41.7259 3.45194 45.074 1.50586C57.2701 29.3496 34.914 42.168 34.914 42.168H34.5316C39.9165 36.0115 42.025 27.9059 40.6297 18.6143Z" fill="#FF93C7"/>
<path d="M5.7879 27.7398C11.0223 27.9227 16.1394 29.3361 20.7229 31.8648C20.0516 30.5322 19.5349 29.1275 19.1829 27.678C17.1158 19.1083 19.9788 8.43484 23.0175 0.308594C27.3688 1.81422 32.0405 5.68141 35.2549 10.1673C37.1974 12.7216 38.5205 15.6902 39.1204 18.8402C40.7121 29.3898 37.5287 37.0314 32.3609 42.2805L32.1335 42.5177C32.1335 42.5177 21.3844 44.343 12.9815 40.4242C3.25566 35.8661 0.826782 28.2658 0.826782 28.2658C2.44804 27.8617 4.11775 27.6847 5.7879 27.7398Z" fill="#419FB9"/>
<path d="M35.2551 10.1674L35.0794 9.91992C29.9946 16.8897 27.3143 25.3179 27.4413 33.9377C27.4379 36.952 27.7461 39.9585 28.3612 42.9096C29.6242 42.8556 30.8835 42.7351 32.1337 42.5487C32.2164 42.4765 32.2888 42.3837 32.3714 42.3012C37.5393 37.0315 40.7123 29.3899 39.1206 18.8402C38.5207 15.6902 37.1976 12.7217 35.2551 10.1674Z" fill="#265E6C"/>
<path d="M75.6775 32.4367L74.4173 19.3932L70.0801 32.4367H65.9389L61.4055 19.2251L60.3137 32.4367H56.1726L58.4116 12.6342C59.0001 12.3277 59.9511 12.0469 60.6228 12.0469C62.1901 12.0469 63.3651 12.5215 63.8406 13.9176L68.5147 27.8272L73.2998 12.6896C73.8883 12.298 74.671 12.0469 75.4259 12.0469C77.0209 12.0469 77.8035 12.6045 78.0572 14.5879L80.2961 32.4347H75.6775V32.4367Z" fill="#419FB9"/>
<path d="M93.5579 28.3597L95.2639 31.0689C93.5282 32.1585 91.5983 32.7161 89.2484 32.7161C84.7981 32.7161 82.1688 30.1177 82.1688 25.7059C82.1688 20.9026 84.9388 18.0254 89.6684 18.0254C93.223 18.0254 95.2936 19.813 95.2936 22.7456C95.2936 25.5675 92.692 27.2425 88.3528 27.2425C87.7365 27.2425 87.1223 27.1871 86.5061 27.1297C86.8132 28.6109 87.7365 29.475 89.5555 29.475C91.1505 29.477 92.4364 29.0855 93.5579 28.3597ZM86.4209 24.7014C87.0649 24.7568 87.7088 24.7844 88.2953 24.7844C90.0865 24.7844 91.093 24.1141 91.093 22.9414C91.093 21.9922 90.4213 21.3772 89.2464 21.3772C87.6791 21.3772 86.6448 22.6052 86.4209 24.7014Z" fill="#419FB9"/>
<path d="M98.4525 39.1406L96.5206 36.0399C97.3607 35.7334 97.975 34.8119 97.975 33.0519V18.3059H102.312V33.835C102.314 36.8784 100.636 38.3022 98.4525 39.1406ZM100.133 16.1267C101.617 16.1267 102.54 15.2883 102.54 13.8091C102.54 12.3576 101.617 11.5469 100.133 11.5469C98.6487 11.5469 97.7253 12.3576 97.7253 13.8091C97.7253 15.2883 98.6487 16.1267 100.133 16.1267Z" fill="#419FB9"/>
<path d="M104.493 25.3717C104.493 20.7642 107.263 18.0254 112.02 18.0254C116.777 18.0254 119.577 20.7622 119.577 25.3717C119.577 29.9812 116.779 32.718 112.02 32.718C107.261 32.718 104.493 29.9792 104.493 25.3717ZM115.182 25.3717C115.182 22.9137 114.007 21.4346 112.048 21.4346C110.088 21.4346 108.913 22.9157 108.913 25.3717C108.913 27.8297 110.088 29.2812 112.048 29.2812C114.007 29.2812 115.182 27.8297 115.182 25.3717Z" fill="#419FB9"/>
<path d="M131.938 18.5L130.678 22.3264C130.202 22.0199 129.586 21.8241 128.914 21.8241C127.123 21.8241 126.004 23.0245 126.004 26.5167V32.4373H121.666V18.6127C122.421 18.2765 123.234 18.0254 123.988 18.0254C125.163 18.0254 125.863 19.0299 125.863 20.4834C126.899 18.6681 128.326 18.0254 129.78 18.0254C130.537 18.0254 131.294 18.2212 131.938 18.5Z" fill="#419FB9"/>
<path d="M140.672 32.7186C136.083 32.7186 133.339 29.9817 133.339 25.3445C133.339 20.737 136.362 18.0278 140.307 18.0278C142.043 18.0278 144.841 18.7259 145.736 21.9947L142.574 23.2524C142.209 22.1628 141.538 21.437 140.531 21.437C138.768 21.437 137.733 22.8905 137.733 25.3465C137.733 27.8322 138.994 29.2837 141.034 29.2837C142.35 29.2837 143.862 28.8091 144.841 28.0833L146.212 31.099C144.674 32.2163 142.604 32.7186 140.672 32.7186Z" fill="#265E6C"/>
<path d="M146.794 25.3698C146.794 20.7622 149.564 18.0234 154.322 18.0234C159.079 18.0234 161.879 20.7603 161.879 25.3698C161.879 29.9793 159.079 32.7161 154.322 32.7161C149.564 32.7161 146.794 29.9773 146.794 25.3698ZM157.484 25.3698C157.484 22.9118 156.309 21.4326 154.349 21.4326C152.39 21.4326 151.215 22.9137 151.215 25.3698C151.215 27.8278 152.39 29.2792 154.349 29.2792C156.309 29.2792 157.484 27.8278 157.484 25.3698Z" fill="#265E6C"/>
<path d="M177.708 23.331V32.4353H173.371V24.0844C173.371 22.4649 172.671 21.4306 171.356 21.4306C169.481 21.4306 168.306 22.4352 168.306 25.3975V32.4353H163.969V18.6107C164.724 18.2746 165.536 18.0234 166.291 18.0234C167.411 18.0234 168.11 18.9449 168.166 20.3134C169.368 18.6088 171.021 18.0234 172.755 18.0234C175.889 18.0234 177.708 19.9792 177.708 23.331Z" fill="#265E6C"/>
<path d="M194.457 14.0035L192.554 17.0765C191.352 16.2381 189.699 15.6251 188.049 15.6251C186.509 15.6251 185.586 16.2954 185.586 17.3573C185.586 18.7811 187.209 19.3407 189.168 20.0388C191.827 20.988 194.962 22.1903 194.962 26.2105C194.962 30.3434 192.107 32.7184 187.266 32.7184C184.607 32.7184 182.144 31.965 180.353 30.6242L181.78 27.4405C183.151 28.5024 185.138 29.1451 187.488 29.1451C189.307 29.1451 190.371 28.3917 190.371 27.134C190.371 25.5421 188.748 24.9548 186.872 24.3141C184.213 23.3926 180.995 22.2476 180.995 18.002C180.995 14.1479 183.597 12.0537 187.964 12.0537C190.175 12.0498 192.525 12.6925 194.457 14.0035Z" fill="#FF93C7"/>
<path d="M209.511 23.3354V32.1332C208.756 32.4674 207.971 32.7205 207.189 32.7205C206.097 32.7205 205.397 31.8267 205.314 30.5413C204.167 32.1609 202.627 32.7205 201.088 32.7205C198.262 32.7205 196.554 31.0733 196.554 28.3918C196.554 25.4315 199.045 23.6992 203.44 23.6992C203.999 23.6992 204.587 23.6992 205.175 23.7269C205.092 22.1904 204.532 21.2689 202.713 21.2689C201.482 21.2689 200.222 21.6605 199.103 22.3862L197.367 19.7047C199.158 18.6151 201.09 18.0298 203.44 18.0298C207.272 18.0278 209.511 19.9835 209.511 23.3354ZM205.172 26.2106C204.583 26.183 204.052 26.183 203.549 26.183C201.702 26.183 200.666 26.8533 200.666 27.9983C200.666 28.8921 201.169 29.5348 202.289 29.5348C203.773 29.5348 205.172 28.6133 205.172 26.2106Z" fill="#FF93C7"/>
<path d="M212.558 28.6128V11.2406C213.313 10.9064 214.126 10.6533 214.881 10.6533C216.168 10.6533 216.896 11.4918 216.896 12.6644V28.249C216.896 28.9193 217.26 29.2832 217.902 29.2832C218.35 29.2832 218.77 29.2001 219.105 29.0874L219.666 31.8242C218.715 32.4392 217.734 32.7181 216.531 32.7181C214.042 32.7181 212.558 31.2389 212.558 28.6128Z" fill="#FF93C7"/>
<path d="M236.335 20.0384V32.1327C235.58 32.4669 234.768 32.72 234.013 32.72C232.893 32.72 232.222 31.7985 232.138 30.4855C231.019 32.1327 229.452 32.72 227.829 32.72C224.694 32.72 222.875 30.7643 222.875 27.4125V18.6147C223.63 18.2785 224.443 18.0273 225.198 18.0273C226.486 18.0273 227.213 18.8658 227.213 20.0384V26.6294C227.213 28.2766 227.912 29.2832 229.228 29.2832C230.964 29.2832 231.998 28.2786 231.998 25.3737V18.6147C232.753 18.2785 233.565 18.0273 234.32 18.0273C235.608 18.0273 236.335 18.8658 236.335 20.0384Z" fill="#FF93C7"/>
<path d="M253.181 12.664V32.1303C252.426 32.4645 251.614 32.7176 250.859 32.7176C249.767 32.7176 249.068 31.7961 248.985 30.5107C247.782 32.158 246.074 32.7176 244.368 32.7176C241.093 32.7176 238.939 30.1765 238.939 25.8459C238.939 20.9021 241.85 18.0249 246.775 18.0249C247.306 18.0249 248.036 18.0526 248.846 18.0803V11.2382C249.601 10.904 250.413 10.6509 251.168 10.6509C252.452 10.6529 253.181 11.4913 253.181 12.664ZM248.842 21.266C248.198 21.2383 247.639 21.2383 247.164 21.2383C244.814 21.2383 243.33 22.9429 243.33 25.8459C243.33 28.025 244.281 29.3084 245.989 29.3084C247.669 29.3084 248.844 28.3315 248.844 25.3693V21.266H248.842Z" fill="#FF93C7"/>
</svg>
