<svg width="26" height="24" viewBox="0 0 26 24" fill="none" xmlns="http://www.w3.org/2000/svg">
<path d="M21.2436 10.1532C20.8913 8.22995 20.1081 6.42032 18.9577 4.87132C20.2569 3.25326 21.8167 1.88282 23.5673 0.82132C29.9442 16.0088 18.2551 23.0007 18.2551 23.0007H18.0552C20.8707 19.6426 21.9731 15.2213 21.2436 10.1532Z" fill="#FF93C7"/>
<path d="M3.02622 15.1309C5.76305 15.2306 8.43859 16.0015 10.8351 17.3809C10.4841 16.654 10.2139 15.8878 10.0299 15.0971C8.9491 10.4227 10.446 4.60087 12.0348 0.168365C14.31 0.989615 16.7526 3.09899 18.4333 5.54587C19.4489 6.93911 20.1407 8.55831 20.4544 10.2765C21.2866 16.0309 19.6222 20.199 16.9201 23.0621L16.8013 23.1915C16.8013 23.1915 11.181 24.1871 6.78746 22.0496C1.70221 19.5634 0.432251 15.4177 0.432251 15.4177C1.27994 15.1974 2.15296 15.1008 3.02622 15.1309Z" fill="#419FB9"/>
<path d="M18.4335 5.54592L18.3416 5.41092C15.683 9.21264 14.2815 13.8098 14.348 18.5115C14.3461 20.1557 14.5073 21.7956 14.8289 23.4053C15.4893 23.3758 16.1477 23.3101 16.8014 23.2084C16.8447 23.169 16.8825 23.1184 16.9257 23.0734C19.6278 20.199 21.2868 16.0309 20.4546 10.2765C20.1409 8.55836 19.4491 6.93916 18.4335 5.54592Z" fill="#265E6C"/>
</svg>
