<svg width="42" height="32" viewBox="0 0 42 32" fill="none" xmlns="http://www.w3.org/2000/svg">
<path d="M37.617 27.416C41.391 23.32 41.011 18.06 40.999 18V12V2C40.999 0.896 40.105 0 38.999 0H26.999C24.793 0 22.999 1.794 22.999 4V18C22.999 19.104 23.893 20 24.999 20H26.999H31.155C31.113 20.804 30.909 21.824 30.297 22.792C29.281 24.394 27.367 25.488 24.605 26.04L22.999 26.36V32H24.999C30.565 32 34.811 30.458 37.617 27.416ZM15.603 27.416C19.379 23.32 18.997 18.06 18.985 18V12V2C18.985 0.896 18.091 0 16.985 0H4.98505C2.77905 0 0.985046 1.794 0.985046 4V18C0.985046 19.104 1.87905 20 2.98505 20H4.98505H9.14105C9.09905 20.804 8.89505 21.824 8.28305 22.792C7.26705 24.394 5.35305 25.488 2.59105 26.04L0.985046 26.36V32H2.98505C8.55105 32 12.797 30.458 15.603 27.416Z" fill="#F778B9"/>
</svg>
